<?xml version="1.0" encoding="iso-8859-1"?>
<!-- Generator: Adobe Illustrator 17.1.0, SVG Export Plug-In . SVG Version: 6.00 Build 0)  -->
<!DOCTYPE svg PUBLIC "-//W3C//DTD SVG 1.1//EN" "http://www.w3.org/Graphics/SVG/1.1/DTD/svg11.dtd">
<svg version="1.1" id="Capa_1" xmlns="http://www.w3.org/2000/svg" xmlns:xlink="http://www.w3.org/1999/xlink" x="0px" y="0px"
	 viewBox="0 0 455 455" style="enable-background:new 0 0 455 455;" xml:space="preserve">
<path d="M435.833,439h-0.75V247.333c4.418,0,8-3.582,8-8v-24c0-4.418-3.582-8-8-8v-47.979c0-0.02-0.003-0.04-0.003-0.06
	c0-0.009-0.001-0.017-0.001-0.026c-0.006-0.531-0.06-1.051-0.165-1.552L414.942,6.949c-0.526-3.976-3.915-6.947-7.926-6.949
	c-0.002,0-0.003,0-0.005,0c-4.008,0-7.398,2.966-7.93,6.94l-20.16,150.771c-0.104,0.496-0.158,1.01-0.165,1.536
	c0,0.015-0.002,0.03-0.002,0.045c0,0.021-0.003,0.042-0.003,0.063v47.979c-4.418,0-8,3.582-8,8v24c0,4.418,3.582,8,8,8v93.803
	l-47.09-18.725v-10.816h0.114c4.418,0,8-3.582,8-8s-3.582-8-8-8h-0.528c-4.459-50.599-45.179-90.949-95.943-94.815v-8.997
	c0-4.418-3.582-8-8-8s-8,3.582-8,8v8.997c-50.764,3.867-91.483,44.216-95.943,94.815h-0.528c-4.418,0-8,3.582-8,8s3.582,8,8,8h0.114
	v10.816l-47.281,18.801v-93.88c4.418,0,8-3.582,8-8v-24c0-4.418-3.582-8-8-8v-47.979c0-0.02-0.003-0.04-0.003-0.06
	c0-0.009-0.001-0.017-0.001-0.026c-0.006-0.531-0.06-1.051-0.165-1.552L55.525,6.949C54.999,2.974,51.61,0.002,47.599,0
	c-0.002,0-0.003,0-0.005,0c-4.008,0-7.398,2.966-7.93,6.94l-20.16,150.771c-0.104,0.496-0.158,1.01-0.165,1.536
	c0,0.015-0.002,0.03-0.002,0.045c0,0.021-0.003,0.042-0.003,0.063v47.979c-4.418,0-8,3.582-8,8v24c0,4.418,3.582,8,8,8V439h-0.167
	c-4.418,0-8,3.582-8,8s3.582,8,8,8h7.888h0.279h16h24.333h111.608h96.059H386.75h40.333h8.75c4.418,0,8-3.582,8-8
	S440.251,439,435.833,439z M386.75,231.333v-8c0.003,0,0.006,0,0.01,0h40.314c0.003,0,0.006,0,0.01,0v8H386.75z M406.974,68.638
	l10.98,82.883h-22.062L406.974,68.638z M394.75,167.521h24.333v39.813H394.75V167.521z M378.75,358.356V439h-47.09v-99.369
	L378.75,358.356z M227.304,216.477c45.6,0,83.241,34.724,87.875,79.119H139.43C144.063,251.202,181.704,216.477,227.304,216.477z
	 M315.661,311.596v16.41c0,0.002,0,0.004,0,0.006V439h-32.327v-55.453c4.075-0.37,7.269-3.792,7.269-7.963c0-4.418-3.582-8-8-8
	h-0.054c-3.998-26.904-27.245-47.612-55.244-47.612s-51.246,20.709-55.244,47.612h-0.227c-4.418,0-8,3.582-8,8
	c0,4.23,3.285,7.684,7.441,7.972V439h-32.327V328.013c0-0.003,0-0.006,0-0.009v-16.408H315.661z M266.298,367.583H188.31
	c3.809-18.034,19.844-31.612,38.994-31.612S262.49,349.55,266.298,367.583z M122.948,339.631V439H75.667v-80.568L122.948,339.631z
	 M27.333,231.333v-8c0.003,0,0.006,0,0.01,0h40.314c0.003,0,0.006,0,0.01,0v8H27.333z M47.557,68.638l10.98,82.883H36.475
	L47.557,68.638z M35.333,167.521h24.333v39.813H35.333V167.521z M43.333,439h-8V247.333h24.333V439H43.333z M235.304,439v-31.583
	c0-4.418-3.582-8-8-8s-8,3.582-8,8V439h-32.029v-55.417h80.059V439H235.304z M394.75,439V247.333h24.333V439H394.75z"/>
<g>
</g>
<g>
</g>
<g>
</g>
<g>
</g>
<g>
</g>
<g>
</g>
<g>
</g>
<g>
</g>
<g>
</g>
<g>
</g>
<g>
</g>
<g>
</g>
<g>
</g>
<g>
</g>
<g>
</g>
</svg>
