<?xml version="1.0" encoding="iso-8859-1"?>
<!-- Generator: Adobe Illustrator 17.1.0, SVG Export Plug-In . SVG Version: 6.00 Build 0)  -->
<!DOCTYPE svg PUBLIC "-//W3C//DTD SVG 1.1//EN" "http://www.w3.org/Graphics/SVG/1.1/DTD/svg11.dtd">
<svg version="1.1" id="Capa_1" xmlns="http://www.w3.org/2000/svg" xmlns:xlink="http://www.w3.org/1999/xlink" x="0px" y="0px"
	 viewBox="0 0 410.814 410.814" style="enable-background:new 0 0 410.814 410.814;" xml:space="preserve">
<g>
	<path d="M406.992,140.359c-2.361-1.327-5.256-1.279-7.571,0.127c-34.587,21.012-70.171,31.664-105.773,31.664
		c-0.002,0-0.009,0-0.011,0c-25.16-0.001-46.83-5.397-63.56-11.697c0.002-0.064,0.01-0.126,0.01-0.19V29.299
		c0-2.709-1.461-5.208-3.823-6.537c-2.362-1.327-5.255-1.279-7.571,0.127c-26.636,16.182-54.037,26.277-81.443,30.008
		c-21.874,2.977-43.844,1.935-65.296-3.101c-36.756-8.625-59.602-26.225-59.818-26.394c-2.257-1.774-5.33-2.104-7.913-0.85
		C1.639,23.809,0,26.428,0,29.299v130.963c0,61.292,49.864,111.157,111.156,111.157h7.774c22.02,0,43.606-6.616,61.798-18.773
		v25.213c0,61.292,49.864,111.157,111.156,111.157h7.774c61.291,0,111.156-49.865,111.156-111.157V146.896
		C410.814,144.187,409.353,141.688,406.992,140.359z M184.95,140.151c-2.582,1.255-4.221,3.874-4.221,6.745v87.25
		c-0.439,0.229-0.861,0.504-1.26,0.828c-17.044,13.829-38.544,21.445-60.538,21.445h-7.774C58.136,256.419,15,213.284,15,160.262
		V43.195c11.028,6.471,29.165,15.393,52.811,21.035c34.434,8.216,87.146,10.593,147.275-21.976v111.782
		c-14.064-6.781-22.052-12.904-22.224-13.038C190.604,139.223,187.531,138.894,184.95,140.151z M395.814,277.859
		c0,53.021-43.136,96.157-96.156,96.157h-7.774c-53.021,0-96.156-43.136-96.156-96.157V160.814
		c17.283,10.168,51.984,26.333,97.907,26.336c0.004,0,0.007,0,0.012,0c34.455,0,68.769-9.176,102.167-27.294V277.859z"/>
	<path d="M255.54,231.189c7.468,0,13.543,6.075,13.543,13.543c0,4.143,3.358,7.5,7.5,7.5c4.142,0,7.5-3.357,7.5-7.5
		c0-15.738-12.805-28.543-28.543-28.543c-15.739,0-28.544,12.805-28.544,28.543c0,4.143,3.358,7.5,7.5,7.5
		c4.142,0,7.5-3.357,7.5-7.5C241.997,237.264,248.072,231.189,255.54,231.189z"/>
	<path d="M314.957,252.232c4.142,0,7.5-3.357,7.5-7.5c0-7.468,6.076-13.543,13.543-13.543c7.468,0,13.544,6.075,13.544,13.543
		c0,4.143,3.358,7.5,7.5,7.5s7.5-3.357,7.5-7.5c0-15.738-12.805-28.543-28.544-28.543c-15.739,0-28.543,12.805-28.543,28.543
		C307.457,248.874,310.815,252.232,314.957,252.232z"/>
	<path d="M257.47,291.151c0-4.142-3.358-7.5-7.5-7.5c-4.142,0-7.5,3.358-7.5,7.5c0,29.391,23.911,53.301,53.301,53.301
		c29.391,0,53.301-23.91,53.301-53.301c0-4.142-3.358-7.5-7.5-7.5c-4.142,0-7.5,3.358-7.5,7.5c0,21.119-17.182,38.301-38.301,38.301
		C274.652,329.452,257.47,312.271,257.47,291.151z"/>
	<path d="M176.317,98.591c-4.142,0-7.5,3.357-7.5,7.5c0,7.468-6.076,13.543-13.544,13.543s-13.543-6.075-13.543-13.543
		c0-4.143-3.358-7.5-7.5-7.5c-4.142,0-7.5,3.357-7.5,7.5c0,15.738,12.804,28.543,28.543,28.543s28.544-12.805,28.544-28.543
		C183.817,101.948,180.459,98.591,176.317,98.591z"/>
	<path d="M103.356,106.091c0-4.143-3.358-7.5-7.5-7.5c-4.142,0-7.5,3.357-7.5,7.5c0,7.468-6.076,13.543-13.543,13.543
		c-7.468,0-13.544-6.075-13.544-13.543c0-4.143-3.358-7.5-7.5-7.5s-7.5,3.357-7.5,7.5c0,15.738,12.805,28.543,28.544,28.543
		C90.552,134.634,103.356,121.829,103.356,106.091z"/>
	<path d="M115.044,166.054c-29.39,0-53.301,23.91-53.301,53.301c0,4.142,3.358,7.5,7.5,7.5c4.142,0,7.5-3.358,7.5-7.5
		c0-21.119,17.182-38.301,38.301-38.301c21.119,0,38.301,17.182,38.301,38.301c0,4.142,3.358,7.5,7.5,7.5s7.5-3.358,7.5-7.5
		C168.345,189.964,144.434,166.054,115.044,166.054z"/>
</g>
<g>
</g>
<g>
</g>
<g>
</g>
<g>
</g>
<g>
</g>
<g>
</g>
<g>
</g>
<g>
</g>
<g>
</g>
<g>
</g>
<g>
</g>
<g>
</g>
<g>
</g>
<g>
</g>
<g>
</g>
</svg>
