<?xml version='1.0' encoding='iso-8859-1'?>
<svg version="1.1" xmlns="http://www.w3.org/2000/svg" viewBox="0 0 463.034 463.034" xmlns:xlink="http://www.w3.org/1999/xlink" enable-background="new 0 0 463.034 463.034">
  <g>
    <g>
      <path d="m401.494,236.593l-27.313-54.627c-2.424-4.848-3.174-10.445-2.11-15.761l5.847-29.234c0.097-0.484 0.146-0.977 0.146-1.471 0-74.715-60.785-135.5-135.5-135.5h-32c-83.538,0-151.5,67.962-151.5,151.5 0,41.804 10.038,76.379 19.746,109.816 9.958,34.297 20.254,69.763 20.254,114.184 0,2.613 1.36,5.037 3.589,6.399l128.458,78.502c2.87,1.754 6.046,2.633 9.229,2.633 2.967,0 5.94-0.765 8.674-2.298 5.667-3.178 9.05-8.954 9.05-15.451v-29.785c0-22.332 18.168-40.5 40.5-40.5h26.556c20.38,0 37.671-15.91 39.364-36.22l5.17-62.038 19.551-7.821c6.084-2.434 10.909-7.342 13.238-13.468 2.327-6.124 1.982-12.999-0.949-18.86zm-13.073,13.53c-0.855,2.248-2.556,3.978-4.789,4.872l-23.855,9.542c-2.637,1.055-4.453,3.51-4.688,6.34l-5.555,66.657c-1.05,12.598-11.774,22.466-24.416,22.466h-26.556c-30.603,0-55.5,24.897-55.5,55.5v29.786c0,1.384-0.869,2.078-1.387,2.368-0.518,0.29-1.563,0.67-2.744-0.051l-124.898-76.327c-0.616-44.551-10.882-79.912-20.819-114.142-9.849-33.922-19.151-65.964-19.151-105.634 0-75.266 61.233-136.5 136.5-136.5h32c66.201,0 120.104,53.659 120.498,119.768l-5.699,28.495c-1.714,8.57-0.505,17.595 3.403,25.411l27.313,54.626c1.076,2.152 1.197,4.575 0.343,6.823z"/>
      <path d="m218.563,56c-57.07,0-103.5,46.43-103.5,103.5 0,11.631 2.022,23.24 6.01,34.503 1.383,3.905 5.671,5.95 9.573,4.567 3.905-1.382 5.949-5.668 4.567-9.573-2.556-7.218-4.167-14.589-4.818-21.997h8.169c4.142,0 7.5-3.358 7.5-7.5s-3.358-7.5-7.5-7.5h-8.179c0.9-10.678 3.704-20.821 8.071-30.09l7.076,4.085c1.181,0.682 2.471,1.006 3.743,1.006 2.592,0 5.113-1.346 6.502-3.751 2.071-3.587 0.842-8.174-2.745-10.245l-7.055-4.073c5.987-8.569 13.45-16.031 22.019-22.019l4.073,7.055c1.389,2.406 3.91,3.751 6.502,3.751 1.272,0 2.562-0.324 3.743-1.006 3.587-2.071 4.816-6.658 2.745-10.245l-4.085-7.076c9.269-4.367 19.412-7.171 30.09-8.071v8.179c0,4.142 3.358,7.5 7.5,7.5s7.5-3.358 7.5-7.5v-8.179c10.678,0.9 20.821,3.704 30.09,8.071l-4.085,7.076c-2.071,3.587-0.842,8.174 2.745,10.245 1.181,0.682 2.471,1.006 3.743,1.006 2.592,0 5.113-1.345 6.502-3.751l4.073-7.055c8.569,5.987 16.031,13.45 22.019,22.019l-7.055,4.073c-3.587,2.071-4.816,6.658-2.745,10.245 1.389,2.406 3.91,3.751 6.502,3.751 1.272,0 2.562-0.324 3.743-1.006l7.076-4.085c4.367,9.269 7.171,19.412 8.071,30.09h-8.179c-4.142,0-7.5,3.358-7.5,7.5s3.358,7.5 7.5,7.5h8.169c-0.651,7.408-2.263,14.779-4.818,21.997-1.382,3.904 0.662,8.19 4.567,9.573 0.828,0.293 1.672,0.432 2.503,0.432 3.088,0 5.98-1.922 7.07-4.999 3.988-11.263 6.01-22.872 6.01-34.503-0.002-57.07-46.432-103.5-103.502-103.5z"/>
      <path d="m253.26,114.197l-24.258,24.258c-3.147-1.568-6.691-2.454-10.439-2.454-12.958,0-23.5,10.542-23.5,23.5s10.542,23.5 23.5,23.5 23.5-10.542 23.5-23.5c0-3.748-0.887-7.292-2.454-10.439l24.258-24.258c2.929-2.929 2.929-7.678 0-10.606-2.93-2.93-7.679-2.93-10.607-0.001zm-34.697,53.803c-4.687,0-8.5-3.813-8.5-8.5s3.813-8.5 8.5-8.5 8.5,3.813 8.5,8.5-3.813,8.5-8.5,8.5z"/>
    </g>
  </g>
</svg>
