<?xml version="1.0" encoding="iso-8859-1"?>
<!-- Generator: Adobe Illustrator 18.1.1, SVG Export Plug-In . SVG Version: 6.00 Build 0)  -->
<svg version="1.1" id="Capa_1" xmlns="http://www.w3.org/2000/svg" xmlns:xlink="http://www.w3.org/1999/xlink" x="0px" y="0px"
	 viewBox="0 0 55.827 55.827" style="enable-background:new 0 0 55.827 55.827;" xml:space="preserve">
<g>
	<g>
		<path style="fill:#030104;" d="M38.997,19.835H18.164c-0.827,0-1.5,0.673-1.5,1.5v25.833c0,0.275,0.224,0.5,0.5,0.5
			s0.5-0.225,0.5-0.5V21.335c0-0.275,0.225-0.5,0.5-0.5h20.833c0.274,0,0.5,0.225,0.5,0.5v25.833c0,0.275,0.224,0.5,0.5,0.5
			s0.5-0.224,0.5-0.5V21.335C40.497,20.508,39.824,19.835,38.997,19.835z"/>
		<path style="fill:#030104;" d="M31.6,24.193h-6.037c-0.861,0-1.561,0.7-1.561,1.56v1.303c0,0.86,0.701,1.56,1.561,1.56H31.6
			c0.86,0,1.56-0.7,1.561-1.56v-1.303C33.16,24.893,32.46,24.193,31.6,24.193z M32.16,27.055c0,0.309-0.251,0.56-0.561,0.56h-6.037
			c-0.309,0-0.561-0.251-0.561-0.56v-1.303c0-0.309,0.252-0.56,0.561-0.56h6.037c0.31,0,0.561,0.251,0.561,0.56V27.055z"/>
		<path style="fill:#030104;" d="M41.664,14.169h-5.333V5.083c0-0.272-0.11-0.518-0.286-0.698C36.094,4.267,36.122,4.137,36.122,4V1
			c0-0.553-0.447-1-1-1H22.455c-0.553,0-1,0.447-1,1v3c0,0.118,0.029,0.227,0.067,0.332c-0.215,0.183-0.358,0.446-0.358,0.751v9.086
			h-7c-2.206,0-4,1.794-4,4v30.833c0,2.207,1.794,4,4,4h3.41v1.265c0,0.858,0.7,1.56,1.56,1.56h1.303c0.86,0,1.56-0.699,1.56-1.56
			v-1.265h12.991v1.265c0,0.858,0.701,1.56,1.561,1.56h1.303c0.86,0,1.561-0.699,1.561-1.56v-1.265h2.25c2.206,0,4-1.793,4-4V18.169
			C45.664,15.962,43.87,14.169,41.664,14.169z M23.455,4V2h10.667v2c0,0.273,0.11,0.518,0.287,0.698
			c-0.05,0.118-0.078,0.248-0.078,0.385v9.086H23.164V5.083c0-0.118-0.029-0.227-0.067-0.332C23.312,4.567,23.455,4.304,23.455,4z
			 M20.999,54.266L20.999,54.266c-0.001,0.309-0.252,0.559-0.561,0.559h-1.303c-0.309,0-0.56-0.25-0.56-0.559v-1.264h2.424V54.266z
			 M38.414,54.266L38.414,54.266c-0.001,0.309-0.252,0.559-0.561,0.559h-1.304c-0.31,0-0.56-0.25-0.56-0.559v-1.264h2.424v1.264
			H38.414z M43.662,49.002c0,1.103-0.896,2-2,2h-27.5c-1.102,0-2-0.897-2-2V18.169c0-1.103,0.898-2,2-2h27.5c1.104,0,2,0.897,2,2
			V49.002z"/>
	</g>
</g>
<g>
</g>
<g>
</g>
<g>
</g>
<g>
</g>
<g>
</g>
<g>
</g>
<g>
</g>
<g>
</g>
<g>
</g>
<g>
</g>
<g>
</g>
<g>
</g>
<g>
</g>
<g>
</g>
<g>
</g>
</svg>
