<?xml version="1.0" encoding="utf-8"?>
<!-- Generated by IcoMoon.io -->
<!DOCTYPE svg PUBLIC "-//W3C//DTD SVG 1.1//EN" "http://www.w3.org/Graphics/SVG/1.1/DTD/svg11.dtd">
<svg version="1.1" xmlns="http://www.w3.org/2000/svg" xmlns:xlink="http://www.w3.org/1999/xlink" width="20" height="24" viewBox="0 0 20 24">
<path fill="#444444" d="M10.286 10.527h9.71q0.161 0.897 0.161 1.714 0 2.906-1.219 5.19t-3.475 3.569-5.176 1.286q-2.103 0-4.004-0.81t-3.281-2.19-2.19-3.281-0.81-4.004 0.81-4.004 2.19-3.281 3.281-2.19 4.004-0.81q4.018 0 6.897 2.692l-2.799 2.692q-1.647-1.594-4.098-1.594-1.728 0-3.194 0.871t-2.324 2.364-0.857 3.261 0.857 3.261 2.324 2.364 3.194 0.871q1.165 0 2.143-0.321t1.607-0.804 1.098-1.098 0.69-1.165 0.301-1.045h-5.839v-3.536z"></path>
</svg>
