<?xml version="1.0" encoding="utf-8"?>
<!-- Generated by IcoMoon.io -->
<!DOCTYPE svg PUBLIC "-//W3C//DTD SVG 1.1//EN" "http://www.w3.org/Graphics/SVG/1.1/DTD/svg11.dtd">
<svg version="1.1" xmlns="http://www.w3.org/2000/svg" xmlns:xlink="http://www.w3.org/1999/xlink" width="31" height="24" viewBox="0 0 31 24">
<path fill="#444444" d="M19.246 12.228q0 2.786-1.165 4.962t-3.321 3.402-4.942 1.225q-1.996 0-3.817-0.777t-3.134-2.089-2.089-3.134-0.777-3.817 0.777-3.817 2.089-3.134 3.134-2.089 3.817-0.777q3.83 0 6.576 2.571l-2.665 2.558q-1.567-1.513-3.911-1.513-1.647 0-3.047 0.83t-2.217 2.257-0.817 3.114 0.817 3.114 2.217 2.257 3.047 0.83q1.112 0 2.042-0.308t1.533-0.77 1.051-1.051 0.656-1.112 0.288-0.991h-5.571v-3.375h9.268q0.161 0.844 0.161 1.634zM30.857 10.594v2.813h-2.799v2.799h-2.813v-2.799h-2.799v-2.813h2.799v-2.799h2.813v2.799h2.799z"></path>
</svg>
