<?xml version="1.0" encoding="utf-8"?>
<!-- Generated by IcoMoon.io -->
<!DOCTYPE svg PUBLIC "-//W3C//DTD SVG 1.1//EN" "http://www.w3.org/Graphics/SVG/1.1/DTD/svg11.dtd">
<svg version="1.1" xmlns="http://www.w3.org/2000/svg" xmlns:xlink="http://www.w3.org/1999/xlink" width="21" height="24" viewBox="0 0 21 24">
<path fill="#444444" d="M18.241 19.098v-8.679h-1.808q0.268 0.844 0.268 1.754 0 1.688-0.857 3.114t-2.33 2.257-3.214 0.83q-2.638 0-4.513-1.815t-1.875-4.386q0-0.911 0.268-1.754h-1.888v8.679q0 0.348 0.234 0.583t0.583 0.234h14.317q0.335 0 0.576-0.234t0.241-0.583zM14.438 11.96q0-1.661-1.212-2.833t-2.926-1.172q-1.701 0-2.913 1.172t-1.212 2.833 1.212 2.833 2.913 1.172q1.714 0 2.926-1.172t1.212-2.833zM18.241 7.138v-2.21q0-0.375-0.268-0.65t-0.656-0.275h-2.33q-0.388 0-0.656 0.275t-0.268 0.65v2.21q0 0.388 0.268 0.656t0.656 0.268h2.33q0.388 0 0.656-0.268t0.268-0.656zM20.571 4.353v15.295q0 1.085-0.777 1.862t-1.862 0.777h-15.295q-1.085 0-1.862-0.777t-0.777-1.862v-15.295q0-1.085 0.777-1.862t1.862-0.777h15.295q1.085 0 1.862 0.777t0.777 1.862z"></path>
</svg>
